<svg width="218" height="183" viewBox="0 0 218 183" fill="none" xmlns="http://www.w3.org/2000/svg">
<path d="M13.2386 65.1983C14.966 67.3296 17.2686 68.5185 19.6633 68.5156C20.8951 68.503 22.1121 68.17 23.241 67.5365C24.3698 66.903 25.3871 65.9822 26.2316 64.8296L30.3331 59.4113C31.8634 59.8615 33.4582 59.7998 34.9647 59.2319C36.4712 58.664 37.8391 57.6091 38.9377 56.1678L47.7718 44.5203L53.9672 36.4849L49.0051 36.1901L36.385 52.8504C35.6473 53.7927 34.716 54.4456 33.7002 54.7328C32.6844 55.02 31.626 54.9296 30.6486 54.4722C30.3037 54.3033 29.9282 54.2656 29.5671 54.3637C29.206 54.4617 28.8745 54.6913 28.6122 55.0251L23.7362 61.5123C23.2295 62.1699 22.6264 62.6918 21.9618 63.048C21.2972 63.4042 20.5842 63.5876 19.8641 63.5876C19.144 63.5876 18.4311 63.4042 17.7664 63.048C17.1018 62.6918 16.4987 62.1699 15.992 61.5123C15.484 60.9034 15.083 60.1619 14.8161 59.3377C14.6695 58.8981 14.4254 58.5238 14.1142 58.2616C13.8031 57.9994 13.4386 57.8609 13.0665 57.8633H12.6076C11.6554 57.8621 10.7171 57.5708 9.86951 57.0134C9.02193 56.4559 8.28924 55.6483 7.73157 54.6566C7.47792 54.2508 7.26594 53.8048 7.10065 53.3296C5.57437 52.9129 4.1177 52.1517 2.79834 51.0812C2.97208 54.0653 3.96381 56.8733 5.59714 59.006C7.23047 61.1388 9.39946 62.4579 11.7184 62.7288C12.1475 63.6262 12.6578 64.4551 13.2386 65.1983Z" fill="white"/>
<path d="M73.557 0.0681024H71.6927C70.4891 -0.0227008 69.2823 -0.0227008 68.0787 0.0681024C60.7648 0.842146 38.3355 5.78119 37.389 5.96549C36.4424 6.37094 32.3409 8.84052 5.43708 24.9849C3.45081 26.2731 1.86029 28.3839 0.922335 30.9766C-0.0156242 33.5693 -0.246316 36.4926 0.267517 39.2745C0.78135 42.0563 2.00972 44.5344 3.7543 46.3088C5.49889 48.0833 7.6579 49.0503 9.88277 49.0539C11.3969 49.0579 12.8906 48.6034 14.2425 47.7271L39.8556 31.3616L67.9927 31.6933L78.8345 36.6693L58.7571 40.3552C56.2771 40.7764 54.0133 42.389 52.4212 44.8686C50.8291 47.3481 50.0269 50.5106 50.1759 53.7196C50.3249 56.9286 51.4141 59.946 53.2244 62.1646C55.0347 64.3832 57.4317 65.6383 59.933 65.6775H61.109L97.8794 59.3008C99.201 59.1094 100.538 59.1966 101.838 59.5588L114.027 62.9867C118.89 64.3487 123.903 64.5735 128.827 63.6503L132.413 62.9867V58.0845L128.254 58.8585C123.836 59.6809 119.341 59.4937 114.974 58.3056L102.813 54.8778C101.089 54.3949 99.3157 54.2829 97.5639 54.546L60.7648 60.9595C59.9678 61.0665 59.1621 60.97 58.3942 60.6755C57.6263 60.381 56.9113 59.8944 56.2903 59.2436C55.6692 58.5927 55.1544 57.7905 54.7754 56.8832C54.3964 55.9758 54.1607 54.9811 54.0819 53.9563C53.9902 52.9416 54.0557 51.9135 54.2747 50.9314C54.4936 49.9494 54.8617 49.0329 55.3576 48.2345C55.8536 47.4361 56.4676 46.7718 57.1643 46.2798C57.8609 45.7879 58.6265 45.478 59.4168 45.368L87.0089 40.1709C87.4248 40.0988 87.8096 39.8486 88.1011 39.4606C88.3926 39.0727 88.5737 38.5697 88.6151 38.0331C88.6599 37.4931 88.5629 36.9493 88.3394 36.4884C88.1159 36.0275 87.7788 35.676 87.3818 35.4898L69.0826 26.9016C68.8732 26.8665 68.6611 26.8665 68.4516 26.9016L39.5401 26.5699C39.2423 26.5763 38.9489 26.6641 38.6796 26.8278L12.6649 43.4514C11.2031 44.3398 9.52758 44.4509 8.00235 43.7607C6.47711 43.0706 5.22543 41.6348 4.51924 39.7655C3.81737 37.9346 3.70371 35.8225 4.20272 33.8848C4.70174 31.9472 5.7735 30.3393 7.18674 29.408L38.3641 10.7573C40.8021 10.2412 61.7113 5.67066 68.5089 4.97033C69.5498 4.87899 70.5945 4.87899 71.6354 4.97033H73.5857C80.326 5.15463 103.788 6.40782 122.173 14.6274H122.489L132.814 16.9127V11.9736L123.234 9.87256C104.878 1.72667 82.4485 0.289222 73.6431 0.0312072L73.557 0.0681024Z" fill="white"/>
<path d="M214.214 67.1884H160.521V7.51327H214.214V67.1884ZM216.107 2.64783H158.743C158.241 2.64783 157.759 2.9042 157.404 3.36042C157.049 3.81664 156.85 4.43536 156.85 5.08055V69.6211C156.85 70.2663 157.049 70.885 157.404 71.3412C157.759 71.7975 158.241 72.0538 158.743 72.0538H216.107C216.607 72.0443 217.084 71.7849 217.437 71.3308C217.791 70.8766 217.993 70.2633 218 69.6211V5.08055C217.993 4.43832 217.791 3.82506 217.437 3.37088C217.084 2.91671 216.607 2.65734 216.107 2.64783Z" fill="white"/>
<path d="M138.407 6.22314C137.913 6.22314 137.439 6.47563 137.089 6.92494C136.739 7.37425 136.543 7.98355 136.543 8.61897L136.256 66.0088C136.251 66.3245 136.296 66.6381 136.39 66.93C136.484 67.2218 136.624 67.4854 136.801 67.7043C136.97 67.9367 137.174 68.1222 137.401 68.249C137.628 68.3758 137.873 68.4413 138.12 68.4415H152.949V63.5761H140.042L140.3 11.0517H152.949V6.33372H138.436L138.407 6.22314Z" fill="white"/>
<path d="M13.2098 177.471C15.4315 173.807 18.3166 170.897 21.6137 168.994C21.9887 168.775 22.3069 168.422 22.5306 167.978C22.7543 167.534 22.8741 167.016 22.8758 166.487V159.115H107.574V166.487C107.573 167.012 107.688 167.527 107.907 167.971C108.125 168.415 108.438 168.769 108.807 168.994C112.113 170.878 115.001 173.792 117.211 177.471H13.2098ZM111.876 164.792V156.388C111.869 155.657 111.64 154.96 111.238 154.443C110.836 153.927 110.293 153.633 109.725 153.623H20.8106C20.2424 153.633 19.6996 153.927 19.2978 154.443C18.8959 154.96 18.6669 155.657 18.6595 156.388V164.792C15.5905 166.856 8.36255 172.569 8.36255 180.236C8.36998 180.966 8.599 181.663 9.00082 182.18C9.40264 182.696 9.94549 182.99 10.5137 183H120.079C120.663 182.971 121.214 182.651 121.616 182.107C122.018 181.563 122.238 180.838 122.23 180.088C122.23 172.716 115.031 166.856 111.962 164.792H111.876Z" fill="white"/>
<path d="M64.981 78.9099H65.4686C67.1579 78.9217 68.7968 79.6511 70.13 80.9844C71.4633 82.3178 72.416 84.1802 72.8399 86.2817H57.6097C58.0292 84.1771 58.9807 82.3111 60.3149 80.9768C61.6491 79.6425 63.2904 78.9154 64.981 78.9099ZM75.2779 91.6631C75.8612 91.6343 76.4126 91.3138 76.8145 90.7698C77.2164 90.2257 77.437 89.5014 77.4291 88.7513C77.4291 86.7329 77.1197 84.7342 76.5186 82.8694C75.9176 81.0045 75.0365 79.3101 73.9259 77.8829C72.8153 76.4556 71.4968 75.3234 70.0457 74.5509C68.5946 73.7785 67.0393 73.381 65.4686 73.381H64.981C63.4018 73.3858 61.8387 73.7915 60.3818 74.5749C58.9249 75.3583 57.6028 76.5038 56.4914 77.9458C55.38 79.3877 54.5013 81.0976 53.9057 82.9772C53.31 84.8569 53.0092 86.8692 53.0206 88.8987C53.0206 89.6319 53.2472 90.335 53.6506 90.8535C54.054 91.3719 54.6012 91.6631 55.1717 91.6631H75.2779Z" fill="white"/>
<path d="M64.9237 100.215H65.354C83.5384 100.215 104.706 111.604 105.853 143.451H24.5681C25.744 111.862 46.7966 100.362 64.9237 100.215ZM20.3231 146.215C20.3192 146.579 20.3722 146.941 20.479 147.279C20.5857 147.616 20.744 147.923 20.9445 148.181C21.1451 148.438 21.3837 148.642 21.6464 148.779C21.9092 148.916 22.1907 148.984 22.4742 148.979H108.148C108.718 148.979 109.265 148.688 109.669 148.17C110.072 147.651 110.299 146.948 110.299 146.215C110.299 108.176 86.1198 94.6121 65.44 94.6121H64.9811C42.7525 94.7964 20.3231 110.83 20.3231 146.215Z" fill="white"/>
<path d="M29.53 140.833H29.9316C30.434 140.836 30.9213 140.613 31.309 140.202C31.6967 139.791 31.9603 139.219 32.0541 138.585C33.0241 132.869 35.0534 127.539 37.9696 123.047C40.8858 118.555 44.6026 115.034 48.8044 112.783C49.0635 112.633 49.2966 112.417 49.4896 112.149C49.6826 111.881 49.8316 111.565 49.9279 111.221C50.0242 110.877 50.0658 110.512 50.0502 110.147C50.0346 109.783 49.9621 109.425 49.837 109.097C49.5887 108.438 49.1495 107.93 48.6134 107.682C48.0773 107.434 47.487 107.466 46.9688 107.77C42.135 110.36 37.8659 114.426 34.5321 119.616C31.1982 124.806 28.9003 130.963 27.8378 137.553C27.7795 137.909 27.7773 138.276 27.8312 138.634C27.8852 138.991 27.9942 139.331 28.1519 139.633C28.3096 139.935 28.5128 140.194 28.7495 140.394C28.9862 140.593 29.2515 140.73 29.53 140.796V140.833Z" fill="white"/>
<path d="M103.501 164.018H26.8339C26.2634 164.018 25.7163 164.309 25.3129 164.827C24.9095 165.346 24.6827 166.049 24.6827 166.782C24.6827 167.515 24.9095 168.218 25.3129 168.737C25.7163 169.255 26.2634 169.547 26.8339 169.547H103.501C104.072 169.547 104.619 169.255 105.022 168.737C105.426 168.218 105.652 167.515 105.652 166.782C105.652 166.049 105.426 165.346 105.022 164.827C104.619 164.309 104.072 164.018 103.501 164.018Z" fill="white"/>
</svg>
