<svg width="219" height="194" viewBox="0 0 219 194" fill="none" xmlns="http://www.w3.org/2000/svg">
<path d="M46.6008 8.79481C49.3711 7.25461 52.4204 6.36318 55.543 6.18065C56.3829 6.08244 57.2307 6.26513 57.968 6.70339C58.1953 7.54797 56.0356 11.6503 49.5184 15.0688C46.7615 16.6025 43.723 17.4808 40.6141 17.6427C39.7742 17.741 38.9264 17.5581 38.1892 17.1199C37.9618 16.2753 40.0837 12.2134 46.6008 8.79481ZM40.6141 23.7157C44.5812 23.5518 48.4641 22.4528 51.9813 20.4983C55.3698 18.8023 58.399 16.3943 60.8856 13.4199C64.4094 8.95566 63.7273 5.65774 62.9695 4.08923C62.2274 2.69397 61.1096 1.56579 59.7595 0.849237C58.4093 0.132685 56.8883 -0.139588 55.3914 0.0674076C51.4272 0.250934 47.5482 1.34895 44.0243 3.28494C40.6226 4.99485 37.5811 7.41604 35.0821 10.4035C33.8916 11.5476 33.0606 13.052 32.7014 14.7135C32.3423 16.375 32.4723 18.1134 33.074 19.6939C33.8161 21.0892 34.9338 22.2174 36.284 22.9339C37.6342 23.6505 39.1552 23.9227 40.652 23.7157H40.6141Z" fill="white"/>
<path d="M55.0883 26.7725C67.4181 20.2368 81.0158 16.8488 94.7975 16.8787C110.981 16.8232 126.875 21.4284 140.787 30.2035C154.699 38.9787 166.109 51.5952 173.799 66.7091L12.9162 151.167C3.48737 128.666 2.61039 103.169 10.4683 79.9982C18.3262 56.8273 34.3118 37.773 55.0883 26.8126V26.7725ZM10.2639 159.211L181.491 69.4037L180.203 66.7091C168.666 43.2083 148.917 25.438 125.187 17.2055C101.457 8.9731 75.6322 10.9334 53.2469 22.6664C30.8617 34.3994 13.6961 54.9718 5.428 79.9759C-2.84009 104.98 -1.553 132.427 9.0135 156.436L10.2639 159.131V159.211Z" fill="white"/>
<path d="M18.7892 144.571C19.1278 144.586 19.465 144.517 19.7744 144.37C20.1433 144.238 20.4823 144.025 20.7696 143.746C21.0569 143.467 21.2863 143.128 21.4431 142.749C21.6 142.371 21.6808 141.962 21.6806 141.549C21.6803 141.135 21.5989 140.727 21.4416 140.348C16.383 125.016 15.5058 108.479 18.9111 92.6414C22.3163 76.8033 29.8655 62.3076 40.6899 50.8227C41.029 50.5603 41.3092 50.2215 41.5102 49.8306C41.7113 49.4397 41.8284 49.0063 41.8529 48.5616C41.8775 48.117 41.809 47.6721 41.6523 47.2589C41.4956 46.8457 41.2547 46.4745 40.9467 46.1718C40.6388 45.8692 40.2716 45.6428 39.8714 45.5087C39.4713 45.3746 39.0481 45.3363 38.6323 45.3964C38.2165 45.4565 37.8184 45.6137 37.4667 45.8565C37.1149 46.0994 36.8181 46.4218 36.5977 46.8009C25.0253 59.0975 16.9639 74.6164 13.3436 91.5669C9.7233 108.518 10.6916 126.209 16.1369 142.601C16.3375 143.177 16.6989 143.674 17.1728 144.026C17.6468 144.378 18.2107 144.568 18.7892 144.571Z" fill="white"/>
<path d="M211.727 189.576H8.40723C7.76322 189.494 7.16992 189.164 6.73949 188.649C6.30906 188.134 6.07137 187.469 6.07137 186.781C6.07137 186.092 6.30906 185.428 6.73949 184.913C7.16992 184.398 7.76322 184.068 8.40723 183.986H211.727C212.371 184.068 212.965 184.398 213.395 184.913C213.826 185.428 214.063 186.092 214.063 186.781C214.063 187.469 213.826 188.134 213.395 188.649C212.965 189.164 212.371 189.494 211.727 189.576ZM211.727 179.562H8.40723C6.6911 179.698 5.08689 180.517 3.91621 181.856C2.74554 183.195 2.09497 184.954 2.09497 186.781C2.09497 188.608 2.74554 190.367 3.91621 191.705C5.08689 193.044 6.6911 193.864 8.40723 194H211.727C213.444 193.864 215.048 193.044 216.218 191.705C217.389 190.367 218.04 188.608 218.04 186.781C218.04 184.954 217.389 183.195 216.218 181.856C215.048 180.517 213.444 179.698 211.727 179.562Z" fill="white"/>
<path d="M193.426 132.305L189.637 164.238C189.409 165.976 188.597 167.568 187.351 168.721C186.105 169.873 184.508 170.51 182.855 170.512H164.44C162.787 170.51 161.191 169.873 159.944 168.721C158.698 167.568 157.886 165.976 157.658 164.238L153.869 132.305H193.426ZM153.338 164.801C153.695 167.609 154.996 170.186 157.001 172.056C159.007 173.926 161.581 174.963 164.251 174.976H182.665C185.337 174.971 187.916 173.937 189.923 172.066C191.93 170.194 193.229 167.613 193.578 164.801L198.163 127.881H148.905L153.49 164.801H153.338Z" fill="white"/>
<path d="M198.92 163.152C198.62 163.096 198.328 163.001 198.049 162.871L197.746 165.525C197.746 166.169 197.481 166.732 197.367 167.335L198.2 167.536C198.68 167.576 199.161 167.576 199.64 167.536C205.513 167.536 211.007 160.98 212.334 152.615C213.225 147.508 212.22 142.233 209.53 137.895C208.821 136.831 207.92 135.928 206.88 135.237C205.839 134.547 204.679 134.083 203.467 133.873C202.875 133.813 202.279 133.813 201.686 133.873L201.118 138.418C201.445 138.379 201.776 138.379 202.103 138.418H202.861C204.207 138.728 205.388 139.578 206.157 140.791C208.182 144.184 208.914 148.268 208.204 152.213C207.256 158.648 202.823 163.997 198.92 163.313V163.152Z" fill="white"/>
<path d="M173.989 86.3757C173.646 86.2084 173.275 86.1153 172.898 86.1017C172.521 86.0881 172.145 86.1545 171.792 86.2967C171.44 86.439 171.117 86.6543 170.844 86.9303C170.57 87.2062 170.351 87.5372 170.199 87.904C165.691 98.7227 168.002 103.71 170.199 108.013C171.385 110.108 172.012 112.507 172.012 114.951C172.012 117.395 171.385 119.793 170.199 121.888C170.044 122.257 169.96 122.655 169.953 123.059C169.945 123.463 170.014 123.865 170.155 124.24C170.297 124.615 170.508 124.956 170.776 125.243C171.043 125.53 171.363 125.757 171.715 125.91C172.064 126.063 172.437 126.145 172.814 126.152C173.379 126.158 173.934 125.986 174.406 125.656C174.879 125.327 175.248 124.855 175.466 124.302C176.949 121.397 177.704 118.137 177.658 114.834C177.611 111.53 176.765 108.295 175.201 105.439C173.42 101.618 172.018 98.5619 175.428 90.3573C175.586 89.9935 175.674 89.5998 175.686 89.1996C175.699 88.7993 175.637 88.4003 175.503 88.026C175.369 87.6516 175.166 87.3093 174.906 87.019C174.646 86.7288 174.334 86.4965 173.989 86.3355V86.3757Z" fill="white"/>
<path d="M161.902 86.3757C161.559 86.2084 161.188 86.1153 160.811 86.1017C160.434 86.0881 160.058 86.1545 159.705 86.2967C159.352 86.439 159.03 86.6543 158.756 86.9303C158.483 87.2062 158.264 87.5372 158.112 87.904C153.603 98.7227 155.915 103.71 158.112 108.013C159.298 110.108 159.925 112.507 159.925 114.951C159.925 117.395 159.298 119.793 158.112 121.888C157.957 122.257 157.873 122.655 157.866 123.059C157.858 123.463 157.927 123.865 158.068 124.24C158.21 124.615 158.42 124.956 158.688 125.243C158.956 125.53 159.276 125.757 159.628 125.91C159.977 126.063 160.35 126.145 160.727 126.152C161.304 126.169 161.872 125.997 162.354 125.658C162.835 125.32 163.207 124.832 163.417 124.261C164.913 121.363 165.678 118.103 165.639 114.798C165.599 111.494 164.755 108.256 163.19 105.399C161.409 101.578 160.007 98.5216 163.417 90.3171C163.575 89.9532 163.662 89.5597 163.675 89.1594C163.688 88.7592 163.626 88.3602 163.492 87.9858C163.357 87.6115 163.155 87.2691 162.895 86.9789C162.635 86.6887 162.323 86.4562 161.977 86.2953L161.902 86.3757Z" fill="white"/>
<path d="M182.362 108.174C183.536 110.274 184.156 112.67 184.156 115.112C184.156 117.553 183.536 119.95 182.362 122.049C182.189 122.418 182.089 122.821 182.069 123.233C182.048 123.645 182.107 124.057 182.242 124.443C182.377 124.83 182.586 125.183 182.855 125.481C183.124 125.778 183.447 126.014 183.805 126.174C184.163 126.334 184.549 126.414 184.937 126.41C185.326 126.405 185.709 126.316 186.064 126.148C186.419 125.98 186.737 125.737 187 125.433C187.263 125.129 187.464 124.772 187.591 124.382C189.085 121.481 189.846 118.219 189.799 114.914C189.753 111.608 188.901 108.372 187.326 105.52C185.545 101.699 184.143 98.6423 187.591 90.4378C187.897 89.6963 187.913 88.8565 187.636 88.1026C187.358 87.3486 186.811 86.7421 186.113 86.4159C185.771 86.2487 185.4 86.1555 185.023 86.142C184.646 86.1284 184.27 86.1948 183.917 86.337C183.564 86.4793 183.242 86.6946 182.968 86.9706C182.695 87.2465 182.476 87.5775 182.324 87.9442C177.853 98.7629 180.165 103.75 182.324 108.053L182.362 108.174Z" fill="white"/>
<path d="M107.832 171.438V175.138H112.038V171.84L142.35 163.515C143.04 163.307 143.638 162.843 144.033 162.207C144.428 161.572 144.595 160.806 144.503 160.051C144.412 159.295 144.067 158.6 143.533 158.091C142.998 157.583 142.31 157.295 141.592 157.281H24.1317C23.4171 157.304 22.7339 157.598 22.2059 158.11C21.6778 158.621 21.3397 159.317 21.2527 160.07C21.1657 160.823 21.3356 161.585 21.7316 162.216C22.1276 162.848 22.7236 163.309 23.4118 163.515L53.421 171.759V175.138H57.6268V171.116C57.6207 170.329 57.3734 169.566 56.9221 168.942C56.4709 168.318 55.8404 167.867 55.1261 167.657L33.5664 161.624H132.082L110.446 167.536C109.619 167.772 108.892 168.298 108.383 169.028C107.874 169.758 107.613 170.65 107.642 171.558L107.832 171.438Z" fill="white"/>
<path d="M102.262 149.719L109.423 152.856H120.374L103.853 145.617C90.329 139.806 75.2054 139.806 61.6812 145.617L44.441 153.017H55.5808L63.1589 149.719C75.6766 144.352 89.6684 144.352 102.186 149.719H102.262Z" fill="white"/>
</svg>
